<svg width="16" height="16" viewBox="0 0 16 16" fill="none" xmlns="http://www.w3.org/2000/svg">
<path fill-rule="evenodd" clip-rule="evenodd" d="M4.00016 5.66671C4.00016 4.74623 4.74635 4.00004 5.66683 4.00004C6.5873 4.00004 7.3335 4.74623 7.3335 5.66671C7.3335 6.58718 6.5873 7.33337 5.66683 7.33337C4.74635 7.33337 4.00016 6.58718 4.00016 5.66671ZM5.66683 5.33337C5.48273 5.33337 5.3335 5.48261 5.3335 5.66671C5.3335 5.8508 5.48273 6.00004 5.66683 6.00004C5.85092 6.00004 6.00016 5.8508 6.00016 5.66671C6.00016 5.48261 5.85092 5.33337 5.66683 5.33337Z" fill="#BABABA"/>
<path fill-rule="evenodd" clip-rule="evenodd" d="M1.3335 3.33337C1.3335 2.2288 2.22893 1.33337 3.3335 1.33337H12.6668C13.7714 1.33337 14.6668 2.2288 14.6668 3.33337V12.6667C14.6668 13.7713 13.7714 14.6667 12.6668 14.6667H3.3335C2.22893 14.6667 1.3335 13.7713 1.3335 12.6667V3.33337ZM3.3335 2.66671C2.96531 2.66671 2.66683 2.96518 2.66683 3.33337V12.6667C2.66683 12.9526 2.84678 13.1965 3.09959 13.2912L10.1955 6.1953C10.4558 5.93495 10.8779 5.93495 11.1383 6.1953L13.3335 8.39051V3.33337C13.3335 2.96518 13.035 2.66671 12.6668 2.66671H3.3335ZM13.3335 10.2761L10.6669 7.60952L4.94302 13.3334H12.6668C13.035 13.3334 13.3335 13.0349 13.3335 12.6667V10.2761Z" fill="#BABABA"/>
</svg>
